<?xml version="1.0" encoding="utf-8"?>
<!-- Generator: Adobe Illustrator 28.0.0, SVG Export Plug-In . SVG Version: 6.00 Build 0)  -->
<svg version="1.1" id="Layer_1" xmlns="http://www.w3.org/2000/svg" xmlns:xlink="http://www.w3.org/1999/xlink" x="0px" y="0px"
	 viewBox="0 0 1080 1080" style="enable-background:new 0 0 1080 1080;" xml:space="preserve">
<style type="text/css">
	.st0{fill:#1D1D1B;}
</style>
<g>
	<path class="st0" d="M667.2,715.4c-85.4,26.9-171.9,25.9-259,10.3c-6.7-1.2-13.2-3.4-19.8-5.2c-23.4-6.1-36.8-18.3-33.3-45.3
		c2.6-19.5,1.1-39.5,1.5-59.2c-0.1-48.8,26.5-82.8,61.8-112.1c15.8-13.1,31.2-16.8,50.1-5.3c34.3,20.7,69.6,20,103.9-0.5
		c15.1-9,28.8-8,42.5,2.3c41.6,31.1,69.2,69.1,70.1,124.3c0.3,21.5-3.4,43.4,2.8,65.2C691.9,704.4,679.3,710.9,667.2,715.4z"/>
	<path class="st0" d="M292.1,340.5c-59.1-53.9-34-149.7,43.1-166.4c46.5-10,94,16,109.9,60.1c16.6,46.3-2.8,96.8-45.9,118.9
		c-5.4,2.7-11,5-16.5,7.5C354.2,379.1,310.6,369.4,292.1,340.5z"/>
	<path class="st0" d="M431.3,357.5c19.8-32.6,47.3-53.7,86.6-54.6c53.1-1.2,95.8,41.6,95.9,95c0,9.1-0.6,18.3-0.9,27.4
		c-3.6,43.2-32.3,63.2-69.9,73.6c-37,10.3-81-5.4-104-36.5C414.5,429.3,418.1,393.6,431.3,357.5z"/>
	<path class="st0" d="M650.3,359c-51.1-28.4-72.5-68.8-59.6-115.4c11.6-41.9,40.5-65.9,83.2-71.1c39.4-4.8,70.4,12.4,90.8,45.3
		c21,34.1,19.2,69.6-2.3,103.7c-3.6,5.7-8.1,11-12.1,16.5C732.7,369,681.3,379.8,650.3,359z"/>
	<path class="st0" d="M788,365.7C788,365.7,788,365.7,788,365.7c-14.1-10.3-26.3-9.4-42.3-0.1c-32.3,18.8-66.9,21.3-100.6,0.9h0
		c0,0,0,0,0,0c-11.8,1.7-6.6,9.7-5.5,15.6c3.9,20.1,1.5,39.3-7.7,57.6c-23.9,21.7-24.4,32.6-0.3,53.3c26.5,22.8,47.6,49.2,59.4,82.4
		c2.9,8.2,7.9,14.7,14.9,19.7c43.5,0.1,86.3-4.8,127.5-19.7c12.1-4.4,22.8-9.8,24-26.5C862.6,476.9,848.1,412.9,788,365.7z"/>
	<path class="st0" d="M422,453c-4.9-6.3-6.5-15.1-9.6-22.8c0,0,0,0,0,0c-4.5-16.8-6.8-33.6-2.5-50.9c1.3-5,3.8-12.8-6.7-12.5
		c0,0,0,0,0,0c0,0,0,0,0,0c-35.5,21.4-70.4,15.9-104.8-2.7c-8-4.3-15-10.3-24.9-6.7c0,0,0,0,0,0c0,0,0,0,0,0
		c-8.9,7.1-18.2,13.7-26.6,21.4c-47.2,43.2-58.4,98.7-56.6,159.8c0.6,21.5,8.9,31.6,27.4,38.4c33.3,12.2,68.3,13.9,102.8,18.5
		c15.8,2.1,25.9-3.4,29.5-19.3c0,0,0,0,0,0c10.6-38.2,33.6-68.1,65.5-90C431.6,475.1,433.1,467.3,422,453z"/>
</g>
</svg>
