<?xml version="1.0" encoding="utf-8"?>
<!-- Generator: Adobe Illustrator 28.0.0, SVG Export Plug-In . SVG Version: 6.00 Build 0)  -->
<svg version="1.1" id="Layer_1" xmlns="http://www.w3.org/2000/svg" xmlns:xlink="http://www.w3.org/1999/xlink" x="0px" y="0px"
	 viewBox="0 0 1080 1080" style="enable-background:new 0 0 1080 1080;" xml:space="preserve">
<style type="text/css">
	.st0{fill:#1D1D1B;}
	.st1{fill:#222019;}
	.st2{fill:#251F1C;}
</style>
<g>
	<path class="st0" d="M468.7,863.1c-27.2,6.3-55,6.4-82.6,8.5c-21.9,1.7-34.6-10-36.6-31.7c-7.1-75.4-13.8-150.8-20.7-226.2
		c-0.7-8.1-1.3-16.2-3-24.1c-3.9-18.9,1.3-34.3,14.9-47.9c16.8-16.7,32.8-34.1,49.1-51.2c11.7,3.8,5.3,11.3,2.8,16.9
		c-6.4,14.1-13.6,28-20.7,41.7c-8.6,16.4-9.6,31.7-1.9,49.9c32.6,77,63.3,154.7,95.8,231.7C469.8,840.2,480.7,851.2,468.7,863.1z"/>
	<path class="st0" d="M751.3,746.4c-36.1-88-72.7-175.9-108.9-263.9c-5.6-13.6-15.1-21.5-28.9-26c-41-13.5-82-27.1-122.7-41.7
		c-12.6-4.5-24.4-6.3-37-1.6c-9,6.2-3.5,11.8,1.4,16.3c3.4,3,6.5,6.2,9.5,9.5c-6.8-6.6-14.2-12.6-22.7-17.7
		c-15.4-13-30.9-25.9-50.4-32.4c-14.4-4.8-27.9-5-38,9.1c-10.1,14.3-4.8,27.1,4.5,38.7c11.8,14.8,25.9,27.3,42.1,37.4
		c5.8,3.6,15.2,6.6,6.6,16.3c-8.6,18.2-16.4,36.9-26.2,54.4c-11.1,19.8-11.7,37.9-2.6,59.3c36.6,86,71.6,172.6,107.2,259
		c11.8,16.7,27.3,21.3,46.1,13.6c66.8-27.5,133.6-54.9,200.1-83C754.4,784.2,760.5,768.9,751.3,746.4z M419,451.5
		c-3.7,3.8-8.9,0.8-12.9-2c-7.7-5.4-15.1-11.4-21-18.8c-3.9-4.8-12.2-10-6.2-16.7c4.2-4.7,11.7-0.4,16.7,2.9
		c13.8,9.4,27.7,18.7,40.5,29.2C431.3,443.8,425.9,444.2,419,451.5z M476.1,493.8c2.9,5.9,8.5,8.7,15.1,8.2
		c8.2-0.6,11.8-5.5,11.6-13.6c-4.6-6.9-9.1-13.7-13.9-20.4c4.9,6.1,10,12.1,15.5,17.8c7.8,8.9,15.8,17.9,7.4,30.4
		c-4.9,7.3-12.4,11.2-21,9c-14.5-3.8-17.8-15.3-16.6-28.6c0.4-4.5-0.9-8.2-2.9-11.6C473,487.9,474.6,490.8,476.1,493.8z
		 M468.2,479.8c0.5,0.8,1,1.6,1.5,2.4c-0.9-1.3-1.8-2.6-2.6-3.9C467.3,478.8,467.8,479.2,468.2,479.8z M448.2,457.2
		c-0.7-0.8-1.5-1.6-2.2-2.3c4,3.7,7.9,7.7,11.6,11.8C454.5,463.5,451.2,460.4,448.2,457.2z M455,647c0.4-21.5,21.8-42.7,43.3-42.9
		c22.2-0.3,43.8,22,43.6,44.7c-0.2,22.5-20.5,43.4-42.2,43.5C475.6,692.4,454.6,671.1,455,647z M521.1,780.8
		c-9.3-4.6-11.3-12.6-7.4-22.2c24.2-58.5,48.3-117,72.6-175.5c2.9-7,7.2-13.2,20-12.4c10.3,1.5,15.7,10.1,10.7,22.4
		c-24.3,59.9-49.2,119.6-74.3,179.2C538.9,781.3,530.8,785.6,521.1,780.8z M630.7,746.8c-22.8-0.3-42.4-20.5-42.1-43.4
		c0.3-23.1,21.8-43.7,45-43c23.1,0.7,41.2,20,41.2,44C674.7,729.4,656.3,747.1,630.7,746.8z"/>
	<path class="st1" d="M520.5,647.4c-0.6,13.5-6.8,21.7-20.7,22.2c-14.5,0.5-23.3-6.8-23.2-21.3c0.1-13.1,7.5-20.7,21.6-20.9
		C512.3,627.2,519,634.3,520.5,647.4z"/>
	<path class="st2" d="M654.9,705.6c-1.7,11.6-7.8,20.1-22,20c-14.9-0.1-23.2-9.9-22.9-22.8c0.4-13.3,10.4-22.3,24.5-21.6
		C647.8,682,654.7,690.7,654.9,705.6z"/>
</g>
</svg>
