<?xml version="1.0" encoding="utf-8"?>
<!-- Generator: Adobe Illustrator 28.0.0, SVG Export Plug-In . SVG Version: 6.00 Build 0)  -->
<svg version="1.1" id="Layer_1" xmlns="http://www.w3.org/2000/svg" xmlns:xlink="http://www.w3.org/1999/xlink" x="0px" y="0px"
	 viewBox="0 0 1080 1080" style="enable-background:new 0 0 1080 1080;" xml:space="preserve">
<style type="text/css">
	.st0{fill:#1D1D1B;}
</style>
<g>
	<path class="st0" d="M736.1,612.1c-8.3-56.3-17-112.6-25.2-168.9c-2.8-19.7-10.5-27.4-31.3-27.6c-31.7-0.3-63.5-0.6-95.2,0.2
		c-14.9,0.4-16.1-4.6-9.6-16.2c12.7-22.7,23.6-46.3,32.5-70.7c18.8-51.8,6.7-99.7-34.9-138c-37.5-34.6-90.3-42.1-138.1-20.4
		c-51.5,23.5-90.2,93.1-67,150.8c10.4,25.9,19.6,52.3,33.8,76.3c8.4,14.3,4.7,18.5-11.1,18.2c-29.8-0.7-59.7-0.2-89.5-0.1
		c-24,0.1-31.2,6-34.9,30.3c-9.6,63.1-19,126.3-28.1,189.5c-3.8,26,4.2,35,30.6,35.1c73.6,0.1,147.2,0,220.9,0c0,0,0-0.1,0-0.1
		c66.6,0,133.3-1.5,199.9,0.4C746.6,672.7,743.4,661.5,736.1,612.1z M668.3,440.3c11.3-1.7,18,1.2,19.4,13
		c2.2,19.5,5.2,38.9,8.2,58.3c1.7,10.8-2.2,14.3-12.3,10.6c-18.5-6.6-36.9-13.5-55.5-19.7c-8-2.7-10.2-5.7-5.1-13.3
		c8.8-13.2,17.3-26.6,25.1-40.4C653.1,440,660.7,439.3,668.3,440.3z M640.1,440.1c-11.5,18-20.9,32.7-30.1,47.4
		c-4.4,7.1-10.5,5.6-16.7,3.5c-13.1-4.6-26.5-8.5-39.1-14.2c-5.8-2.6-18.6-0.9-15.2-11.8c3.2-10,6.9-23.9,20.4-24.6
		C585,439.2,610.6,440.1,640.1,440.1z M586.1,524.6c-14.4,22.4-28.9,44.7-43,67.3c-4,6.4-8.1,6.5-13.9,2.7
		c-46.2-30.1-92.5-60-138.8-90.1c-3.5-2.2-9.8-6.2-3.4-9.6c16.8-8.8,34.5-15.7,51.3-23.1c7.4,1.7,9.4,7.5,12.4,12
		c10.5,15.8,21,31.7,30.9,47.9c4.8,7.8,8.6,8.5,13.4,0.5c0.7-1.1,1.4-2.1,2.2-3.1c9.3-11.8,14-34.4,26.5-34.4
		c19.8,0,39.6,11.3,59.4,18C589.8,515,589.6,519.3,586.1,524.6z M489.4,209.2c43.7,0.1,76.3,33.2,76.3,77.4
		c0,44.1-32.7,76.9-76.8,76.9c-44,0-76.9-32.7-77-76.6C411.7,241.3,443.8,209.2,489.4,209.2z M289,459.1c1.5-11.2,10.5-18.9,23-19
		c34.3-0.2,68.5-0.2,102.8-0.1c4.3,0,9.5-0.3,10.4,5.7c0.8,4.9-3.5,6.4-6.8,7.8c-44.1,19-88.3,37.9-133.7,57.4
		C280.9,491.1,286.8,475.2,289,459.1z M412.7,645.5c-41.7,0-83.5,0.3-125.2-0.2c-15.4-0.2-23.7-9.5-22.2-24.6
		c1.9-20.1,5.6-40,8.5-59.9c1.4-9.2,5.7-9.7,12.9-4.9c42.4,28.6,84.9,56.9,127.4,85.3C413.6,642.7,413.1,644.1,412.7,645.5z
		 M689.7,645.8c-72.4,0.1-144.8,0.1-217.1-0.1c-4.2,0-9.1-1.2-12.5-3.4c-53.4-35.3-106.5-70.8-164.1-109.2
		c23.8-10.3,43.5-18.8,63.3-27.2c8.3-3.5,14.6,1.2,21,5.4c48.4,31.4,97,62.5,145.1,94.3c11.6,7.6,18.2,9.8,26.3-5
		c12.4-22.7,28.3-43.5,41.6-65.8c6.8-11.5,14-14.2,26.5-9.3c21.2,8.3,42.8,15.8,64.7,22.3c13.2,3.9,20.1,11,21.4,24.5
		c1.6,17,4.3,33.9,5.5,50.9C712.3,637.7,704.6,645.7,689.7,645.8z"/>
</g>
</svg>
