<?xml version="1.0" encoding="utf-8"?>
<!-- Generator: Adobe Illustrator 28.0.0, SVG Export Plug-In . SVG Version: 6.00 Build 0)  -->
<svg version="1.1" id="Layer_1" xmlns="http://www.w3.org/2000/svg" xmlns:xlink="http://www.w3.org/1999/xlink" x="0px" y="0px"
	 viewBox="0 0 1080 1080" style="enable-background:new 0 0 1080 1080;" xml:space="preserve">
<style type="text/css">
	.st0{fill:#252525;}
	.st1{fill:#262625;}
	.st2{fill:#252524;}
</style>
<path class="st0" d="M693.3,425.7c0,17.5-0.5,35.1,0.2,52.6c0.3,9.4-3.1,15.3-11,19.8c-32.4,18.4-64.8,37-97,55.8
	c-7.1,4.2-13.1,2.9-19.6-0.8c-32.3-18.7-64.6-37.5-97-55.9c-7.6-4.3-9.9-10.2-9.8-18.6c0.3-36.2,0.3-72.4,0.1-108.6
	c-0.1-8.3,1.9-14.4,9.7-18.8c32-18.1,63.7-36.7,95.6-54.9c10-5.7,43.7,4.7,47.8,14.9c2.9,7.3-4.9,8.3-8.6,10.5
	c-29.1,17.2-58.1,34.7-88.1,50.3c-12.5,6.6-16.4,14.8-14.8,27.6c0.6,5.2,0.1,10.5,0.1,15.8c0,16.1,10.3,29.2,25.8,33.2
	c5.2,1.3,7.9,0.1,8.2-5.3c0.1-2.3,0.8-4.8,0.2-7c-7.1-30.4,9.7-45,34.6-56.8c23.6-11.2,45.7-25.8,68.5-38.7
	c20.9-11.8,54.8,8.1,55.1,32.4C693.6,390.6,693.4,408.2,693.3,425.7z"/>
<path class="st1" d="M530.5,550.5c14.3,7.7,24.9,13.6,35.6,19.2c8.3,4.3,6.9,12.3,5.7,18.5c-4.1,20.5,9.9,27.5,24,35
	c7.8,4.1,10.7,1.3,10.4-6.7c0-0.6,0.2-1.2,0-1.7c-8-32.7,10.7-47.7,37.1-60.3c23.6-11.2,45.8-25.6,68.2-39.3
	c7.9-4.8,13.8-4.5,22.4-0.9c23.9,10.2,33.6,25.8,31.1,52.6c-2.8,28.9-1,58.3-0.5,87.5c0.2,10.1-3.5,15.8-12.2,20.7
	c-30.1,16.7-59.8,34-89.3,51.7c-10.1,6.1-18.6,6.8-29,0.5c-29-17.4-58.3-34.3-87.9-50.5c-11.1-6.1-16-13.5-15.7-26.3
	C530.9,618,530.5,585.6,530.5,550.5z"/>
<path class="st2" d="M374.6,509.6c0-19.3,0.2-38.5-0.1-57.8c-0.1-7.1,1.9-12,8.5-15.6c16.4-8.9,32.7-18,48.6-27.6
	c11.1-6.7,13-3.3,13.4,8.4c0.6,19.2,1.8,37.6-21.7,44.9c-7,2.1-7.5,8.1-7.4,14.2c0.1,8.8,0.1,17.5,0.1,26.3
	c0,15.9,10.1,28.5,25.5,31.7c11.3,2.3,7-6.7,7.3-11.1c1.3-19.3,0.2-17,18.5-10.1c39.9,15.1,57.3,41.2,48.6,83.7
	c-1.3,6.2-0.1,12.8-0.1,19.2c-0.2,20.4-19.1,32.1-36.8,22.1c-31.5-17.8-62.4-36.5-93.9-54.1c-8.4-4.7-11-10.6-10.7-19.7
	c0.5-18.1,0.2-36.2,0.2-54.3C374.4,509.6,374.5,509.6,374.6,509.6z"/>
</svg>
